<svg width="201" height="78" viewBox="0 0 201 78" fill="none" xmlns="http://www.w3.org/2000/svg">
<path d="M11.52 50.16C11.4133 50.16 11.0933 50.1067 10.56 50C10.08 49.8933 9.6 49.76 9.12 49.6C8.69333 49.44 8.45333 49.2533 8.4 49.04C8.29333 48.0267 8.56 46.5867 9.2 44.72C9.84 42.8533 10.6933 40.7733 11.76 38.48C12.88 36.1333 14.0267 33.84 15.2 31.6C14.9867 31.6 14.7467 31.6 14.48 31.6C14.2667 31.5467 14.0267 31.52 13.76 31.52C13.12 31.4133 12.8 31.12 12.8 30.64C12.8 30.3733 13.0933 30.24 13.68 30.24C14.1067 30.24 14.48 30.2667 14.8 30.32C15.12 30.32 15.4667 30.32 15.84 30.32C16.9067 28.2933 17.8933 26.48 18.8 24.88C19.7067 23.2267 20.3467 21.9733 20.72 21.12C21.04 20.5333 21.2533 20.0533 21.36 19.68C21.4667 19.2533 21.52 18.9333 21.52 18.72C21.52 18.4 21.4667 18.1333 21.36 17.92C21.4667 17.28 21.84 16.4267 22.48 15.36C23.1733 14.2933 24.0267 13.2267 25.04 12.16C26.0533 11.0933 27.1467 10.2133 28.32 9.52C29.4933 8.77333 30.5867 8.4 31.6 8.4C31.92 8.4 32.4 8.50666 33.04 8.72C33.7333 8.88 34.4 9.14666 35.04 9.52C35.68 9.89333 36.08 10.4267 36.24 11.12C36.2933 11.2267 36.32 11.3867 36.32 11.6C36.32 11.76 36.24 11.84 36.08 11.84C35.9733 11.84 35.8133 11.8133 35.6 11.76C35.44 11.6533 35.3067 11.6 35.2 11.6C34.0267 11.6 32.7467 12.16 31.36 13.28C30.0267 14.3467 28.64 15.7867 27.2 17.6C25.76 19.4133 24.32 21.44 22.88 23.68C21.4933 25.8667 20.16 28.08 18.88 30.32C21.5467 30.2133 24.3733 29.8933 27.36 29.36C30.3467 28.7733 33.3067 28 36.24 27.04C39.1733 26.08 41.8933 24.9067 44.4 23.52C46.9067 22.1333 49.0133 20.56 50.72 18.8C52.5867 16.8267 53.52 14.8 53.52 12.72C53.52 11.1733 52.9333 9.73333 51.76 8.4C50.5867 7.06666 48.7467 6.05333 46.24 5.36C44.7467 4.93333 43.04 4.61333 41.12 4.4C39.2533 4.18666 37.2267 4.08 35.04 4.08C31.6267 4.08 28.1067 4.37333 24.48 4.96C20.9067 5.54666 17.5467 6.45333 14.4 7.68C11.2533 8.85333 8.61333 10.3467 6.48 12.16C4.34667 13.9733 3.06667 16.1333 2.64 18.64C2.48 19.92 2.72 20.9333 3.36 21.68C4 22.4267 4.77333 23.0133 5.68 23.44C6.64 23.8133 7.38667 24.16 7.92 24.48C8.29333 24.8 8.48 25.0667 8.48 25.28C8.48 25.6533 8.13333 25.7867 7.44 25.68C6.69333 25.52 5.76 25.1467 4.64 24.56C3.57333 23.9733 2.61333 23.1733 1.76 22.16C0.96 21.0933 0.56 19.8667 0.56 18.48C0.56 18.2667 0.56 18.0533 0.56 17.84C0.613333 17.6267 0.666667 17.4133 0.72 17.2C0.72 17.1467 0.693333 16.9867 0.64 16.72C0.64 16.4 0.64 16.1333 0.64 15.92C0.96 14.2667 1.76 12.72 3.04 11.28C4.37333 9.78667 5.86667 8.48 7.52 7.36C9.22667 6.18666 10.8 5.25333 12.24 4.56C14.7467 3.33333 17.76 2.37333 21.28 1.68C24.8 0.933329 28.48 0.559996 32.32 0.559996C34.6667 0.559996 36.9867 0.719997 39.28 1.04C41.6267 1.36 43.8933 1.86666 46.08 2.56C49.12 3.57333 51.4667 5.14667 53.12 7.28C54.8267 9.36 55.6 11.5467 55.44 13.84C55.28 16.0267 54.5067 18 53.12 19.76C51.7867 21.52 50.0533 23.0667 47.92 24.4C45.84 25.68 43.52 26.8 40.96 27.76C38.4533 28.6667 35.92 29.4133 33.36 30C30.9067 30.5333 28.2933 30.9333 25.52 31.2C22.8 31.4667 20.3467 31.6267 18.16 31.68C16.88 33.9733 15.7333 36.1333 14.72 38.16C13.76 40.1867 13.04 41.8133 12.56 43.04C12.1333 44.2133 11.92 45.04 11.92 45.52C11.92 46.2667 12.2133 46.64 12.8 46.64C13.5467 46.64 14.3467 46.1333 15.2 45.12C15.7867 44.4267 16.32 43.7867 16.8 43.2C17.3333 42.56 17.7867 42.2933 18.16 42.4C18.2133 42.4533 18.24 42.5333 18.24 42.64C18.24 42.9067 18.0533 43.28 17.68 43.76C17.3067 44.1867 17.0933 44.4267 17.04 44.48C16.6667 45.0133 16.16 45.7333 15.52 46.64C14.9333 47.5467 14.2933 48.3467 13.6 49.04C12.96 49.7867 12.2667 50.16 11.52 50.16ZM50.4869 48.88C48.9935 48.88 47.6869 48.5333 46.5669 47.84C44.7002 46.72 43.7669 44.6933 43.7669 41.76C43.7669 40.5333 43.9802 39.12 44.4069 37.52C44.7802 36.1867 45.4469 34.7467 46.4069 33.2C47.3669 31.6 48.4869 30.08 49.7669 28.64C51.1002 27.2 52.5402 26.0267 54.0869 25.12C55.6335 24.2133 57.1802 23.76 58.7269 23.76C59.3669 23.76 59.9269 23.84 60.4069 24C61.0469 24.2133 61.5802 24.6133 62.0069 25.2C62.4869 25.7333 62.7269 26.4267 62.7269 27.28C62.7269 28.1867 62.4869 28.6933 62.0069 28.8C61.5802 28.9067 61.3669 28.8 61.3669 28.48C61.3669 28.3733 61.3669 28.2667 61.3669 28.16C61.4202 28.0533 61.4469 27.9733 61.4469 27.92C61.4469 27.4933 61.3135 27.12 61.0469 26.8C60.8335 26.4267 60.4069 26.24 59.7669 26.24C58.9135 26.24 57.8469 26.6933 56.5669 27.6C55.3402 28.5067 54.0602 29.7333 52.7269 31.28C51.4469 32.7733 50.3002 34.4267 49.2869 36.24C48.3269 38.0533 47.6869 39.8667 47.3669 41.68C47.3135 41.9467 47.2602 42.2133 47.2069 42.48C47.2069 42.6933 47.2069 42.9333 47.2069 43.2C47.2069 44.4267 47.4735 45.4667 48.0069 46.32C48.5935 47.12 49.5002 47.52 50.7269 47.52C52.2202 47.52 53.6602 46.96 55.0469 45.84C56.4335 44.6667 57.6602 43.28 58.7269 41.68C59.8469 40.08 60.6735 38.6667 61.2069 37.44C61.6335 36.48 61.9269 35.6533 62.0869 34.96C62.2469 34.2667 62.3269 33.68 62.3269 33.2C62.3269 32.7733 62.2735 32.4 62.1669 32.08C62.1135 31.76 62.0335 31.4933 61.9269 31.28C61.8202 30.96 61.7669 30.72 61.7669 30.56C61.7669 30.1333 61.9269 29.7867 62.2469 29.52C62.6202 29.2533 62.9935 29.12 63.3669 29.12C63.6869 29.12 64.0335 29.2267 64.4069 29.44C64.8335 29.5467 65.4202 29.6267 66.1669 29.68C66.9135 29.7333 67.7135 29.76 68.5669 29.76C69.4735 29.76 70.3802 29.7333 71.2869 29.68C72.2469 29.6267 73.0735 29.52 73.7669 29.36C73.8735 29.3067 74.0335 29.28 74.2469 29.28C74.6202 29.28 74.8069 29.3867 74.8069 29.6C74.8069 29.8133 74.6202 30 74.2469 30.16C72.3802 31.0133 70.7002 31.4667 69.2069 31.52C67.7669 31.5733 66.5135 31.6 65.4469 31.6C65.5535 32.9333 65.2602 34.3733 64.5669 35.92C63.8735 37.4133 63.1535 38.7467 62.4069 39.92C61.5002 41.2533 60.4602 42.6133 59.2869 44C58.1135 45.3867 56.8069 46.56 55.3669 47.52C53.9269 48.4267 52.3002 48.88 50.4869 48.88ZM73.1738 52C72.5871 52 72.0004 51.92 71.4138 51.76C70.8271 51.6 70.4004 51.28 70.1338 50.8C69.9204 50.3733 69.9471 49.84 70.2138 49.2C70.4804 48.6133 70.8538 48.08 71.3338 47.6C71.7604 47.1733 72.2938 46.7467 72.9338 46.32C73.6271 45.8933 74.3471 45.5467 75.0938 45.28H75.2538C75.5204 45.28 75.6538 45.3867 75.6538 45.6C75.6538 45.76 75.5471 45.92 75.3338 46.08C74.3738 46.56 73.6271 47.1467 73.0938 47.84C72.7204 48.2667 72.5338 48.72 72.5338 49.2C72.5338 50.0533 73.0404 50.48 74.0538 50.48C75.1738 50.48 76.3738 50.1333 77.6538 49.44C78.9871 48.8 80.2404 47.9467 81.4138 46.88C82.6404 45.76 83.6271 44.5867 84.3738 43.36C85.1204 42.1333 85.4938 40.96 85.4938 39.84C85.4938 39.0933 85.0938 38.4267 84.2938 37.84C83.4938 37.2 82.6138 36.64 81.6538 36.16C80.6938 35.6267 79.9738 35.2 79.4938 34.88C78.9071 34.4533 78.3738 34.0267 77.8938 33.6C77.4138 33.12 77.0404 32.6133 76.7738 32.08C76.3471 32.8267 75.7871 33.7333 75.0938 34.8C74.4538 35.8133 73.6804 36.88 72.7738 38C72.4538 38.32 72.1338 38.48 71.8138 38.48C71.4938 38.48 71.3338 38.3467 71.3338 38.08C71.3338 37.92 71.4671 37.6533 71.7337 37.28C73.1738 35.5733 74.2404 34 74.9338 32.56C75.6271 31.12 76.1071 30.0267 76.3738 29.28C76.5871 27.7333 77.3071 26.2667 78.5338 24.88C79.7604 23.4933 81.2538 22.2933 83.0138 21.28C84.7738 20.2133 86.5604 19.3867 88.3738 18.8C90.2404 18.2133 91.8938 17.92 93.3338 17.92C94.7738 17.92 96.0538 18.1867 97.1738 18.72C98.2938 19.2533 98.8538 20.1067 98.8538 21.28C98.8538 21.92 98.6671 22.6133 98.2938 23.36C97.8138 24.3733 97.0138 25.28 95.8938 26.08C95.8404 26.1333 95.7604 26.16 95.6538 26.16C95.2271 26.16 95.0138 25.9733 95.0138 25.6C95.0138 25.3333 95.1471 25.0667 95.4138 24.8C95.8404 24.4267 96.1871 23.9733 96.4538 23.44C96.7204 22.9067 96.8538 22.4 96.8538 21.92C96.8538 20.96 96.2938 20.48 95.1738 20.48C94.3738 20.48 93.4404 20.64 92.3738 20.96C91.3071 21.2267 90.2671 21.5733 89.2538 22C88.2938 22.3733 87.4938 22.72 86.8538 23.04C85.5204 23.68 84.2938 24.48 83.1738 25.44C82.0538 26.3467 80.9871 27.4933 79.9738 28.88C79.2804 29.7867 78.9338 30.64 78.9338 31.44C78.9338 32.4 79.5738 33.28 80.8537 34.08C82.1871 34.8267 83.4938 35.5467 84.7738 36.24C86.1071 36.9333 87.2271 37.68 88.1338 38.48C89.0404 39.28 89.4938 40.24 89.4938 41.36C89.4938 42.5867 88.7204 44.0533 87.1738 45.76C86.2138 46.8267 84.9071 47.84 83.2538 48.8C81.6538 49.76 79.9471 50.5333 78.1338 51.12C76.3204 51.7067 74.6671 52 73.1738 52ZM99.8856 48.8C98.9256 48.8 98.0456 48.5867 97.2456 48.16C96.499 47.7333 95.939 46.9333 95.5656 45.76C95.5123 45.6 95.459 45.44 95.4056 45.28C95.4056 45.12 95.4056 44.9333 95.4056 44.72C95.4056 43.6533 95.6456 42.32 96.1256 40.72C96.6056 39.12 97.1923 37.5733 97.8856 36.08C97.5656 36.5067 97.1923 37.04 96.7656 37.68C96.339 38.2667 95.7256 39.04 94.9256 40C94.7123 40.2133 94.4723 40.32 94.2056 40.32C93.8323 40.32 93.6456 40.1067 93.6456 39.68C93.6456 39.36 93.7523 39.0933 93.9656 38.88C95.3523 37.12 96.579 35.5467 97.6456 34.16C98.7656 32.7733 99.5923 31.6 100.126 30.64C100.126 30.5333 100.286 30.2133 100.606 29.68C100.926 29.0933 101.352 28.2933 101.886 27.28C101.459 27.3333 101.086 27.3867 100.766 27.44C100.499 27.44 100.259 27.44 100.046 27.44C99.6723 27.44 99.3523 27.28 99.0856 26.96C98.819 26.64 98.7923 26.24 99.0056 25.76C99.2723 25.0133 99.859 24.5867 100.766 24.48C101.672 24.3733 102.472 24.2933 103.166 24.24C103.219 24.1333 103.326 24.08 103.486 24.08C104.126 22.9067 104.739 21.76 105.326 20.64C105.912 19.52 106.392 18.5867 106.766 17.84C107.192 17.0933 107.406 16.6933 107.406 16.64C108.472 14.9333 109.166 13.8133 109.486 13.28C109.806 12.6933 110.232 12.3467 110.766 12.24C111.352 12.1867 111.966 12.2133 112.606 12.32C113.299 12.4267 113.752 12.6667 113.966 13.04C114.126 13.2533 114.206 13.52 114.206 13.84C114.206 14.32 114.099 14.8 113.886 15.28C113.672 15.7067 113.459 16.0533 113.246 16.32C113.032 16.6933 112.739 16.96 112.366 17.12C112.046 17.2267 111.752 17.5467 111.486 18.08C110.952 19.0933 110.366 20.1867 109.726 21.36C109.086 22.5333 108.419 23.6533 107.726 24.72L108.686 24.64C109.966 24.5333 111.166 24.4 112.286 24.24C113.459 24.08 114.792 24.0267 116.286 24.08C116.552 24.08 116.819 24.1333 117.086 24.24C117.406 24.2933 117.566 24.4 117.566 24.56C117.566 24.7733 116.872 25.0667 115.486 25.44C114.952 25.6533 113.779 25.8933 111.966 26.16C110.206 26.3733 108.392 26.5867 106.526 26.8C105.992 27.8133 105.512 28.6667 105.086 29.36C104.659 30 104.366 30.48 104.206 30.8C103.032 33.2533 101.966 35.4933 101.006 37.52C100.099 39.4933 99.5923 41.12 99.4856 42.4C99.4323 42.6133 99.4056 42.8267 99.4056 43.04C99.4056 43.2 99.4056 43.3867 99.4056 43.6C99.4056 45.7333 100.099 46.8 101.486 46.8C102.339 46.8 103.432 46.3467 104.766 45.44C106.099 44.48 107.459 43.3333 108.846 42C110.232 40.6133 111.486 39.3067 112.606 38.08C113.779 36.8 114.579 35.84 115.006 35.2C115.166 35.04 115.326 34.96 115.486 34.96C115.699 34.96 115.859 35.04 115.966 35.2C116.126 35.36 116.152 35.5733 116.046 35.84C115.566 36.7467 114.739 37.8933 113.566 39.28C112.446 40.6133 111.166 41.9733 109.726 43.36C108.339 44.6933 106.979 45.84 105.646 46.8C104.952 47.3333 104.072 47.7867 103.006 48.16C101.992 48.5867 100.952 48.8 99.8856 48.8ZM126.653 20.16C125.959 20.16 125.239 20.1067 124.493 20C123.746 19.84 123.373 19.3333 123.373 18.48C123.373 18.32 123.719 17.9467 124.413 17.36C125.159 16.7733 125.906 16.1867 126.653 15.6C127.453 14.96 127.933 14.5867 128.093 14.48C128.999 13.7333 129.559 13.36 129.773 13.36C130.039 13.36 130.039 13.7067 129.773 14.4C129.506 15.0933 129.373 15.7067 129.373 16.24C129.373 16.5067 129.213 16.96 128.893 17.6C128.573 18.24 128.199 18.8267 127.773 19.36C127.346 19.8933 126.973 20.16 126.653 20.16ZM117.933 48.8C116.973 48.8 116.093 48.5867 115.293 48.16C114.546 47.7333 113.986 46.9333 113.613 45.76C113.559 45.6 113.506 45.44 113.452 45.28C113.452 45.12 113.452 44.9333 113.452 44.72C113.452 43.6533 113.693 42.32 114.173 40.72C114.653 39.12 115.239 37.5733 115.933 36.08C115.613 36.5067 115.239 37.04 114.813 37.68C114.386 38.2667 113.773 39.04 112.973 40C112.759 40.2133 112.519 40.32 112.253 40.32C111.879 40.32 111.693 40.1067 111.693 39.68C111.693 39.36 111.799 39.0933 112.013 38.88C113.399 37.12 114.626 35.5467 115.693 34.16C116.813 32.7733 117.639 31.6 118.173 30.64C118.173 30.5867 118.146 30.56 118.093 30.56C118.093 30.5067 118.093 30.4533 118.093 30.4C118.093 30.24 118.173 30 118.333 29.68C118.759 28.4 119.186 27.3333 119.613 26.48C120.093 25.5733 120.599 25.0667 121.133 24.96C121.239 24.96 121.346 24.96 121.453 24.96C121.559 24.9067 121.666 24.88 121.773 24.88C122.359 24.88 122.893 25.0133 123.373 25.28C123.853 25.5467 124.093 25.9467 124.093 26.48C124.093 26.96 123.906 27.5467 123.533 28.24C123.213 28.9333 122.786 29.7867 122.253 30.8C121.079 33.2533 120.013 35.4933 119.053 37.52C118.146 39.4933 117.639 41.12 117.533 42.4C117.479 42.6133 117.453 42.8267 117.453 43.04C117.453 43.2 117.453 43.3867 117.453 43.6C117.453 45.7333 118.146 46.8 119.533 46.8C120.386 46.8 121.479 46.3467 122.813 45.44C124.146 44.48 125.506 43.3333 126.893 42C128.279 40.6133 129.533 39.3067 130.653 38.08C131.826 36.8 132.626 35.84 133.053 35.2C133.213 35.04 133.373 34.96 133.533 34.96C133.746 34.96 133.906 35.04 134.013 35.2C134.173 35.36 134.199 35.5733 134.093 35.84C133.613 36.7467 132.786 37.8933 131.613 39.28C130.493 40.6133 129.213 41.9733 127.773 43.36C126.386 44.6933 125.026 45.84 123.693 46.8C122.999 47.3333 122.119 47.7867 121.053 48.16C120.039 48.5867 118.999 48.8 117.933 48.8ZM128.699 49.04C128.326 49.04 128.219 48.8533 128.379 48.48C128.539 48.16 128.833 47.44 129.259 46.32C129.686 45.1467 130.166 43.76 130.699 42.16C131.286 40.56 131.873 38.9067 132.459 37.2C133.046 35.4933 133.579 33.8933 134.059 32.4C134.593 30.9067 135.019 29.7333 135.339 28.88C135.446 28.56 135.553 28.1067 135.659 27.52C135.766 26.88 135.979 26.32 136.299 25.84C136.673 25.3067 137.286 25.04 138.139 25.04C139.739 25.04 140.539 25.4133 140.539 26.16C140.539 26.4267 140.406 26.88 140.139 27.52C139.499 28.96 138.806 30.6133 138.059 32.48C137.313 34.3467 136.646 36.1067 136.059 37.76C135.473 39.4133 135.019 40.6933 134.699 41.6C135.233 40.8533 136.086 39.7867 137.259 38.4C138.486 37.0133 139.846 35.52 141.339 33.92C142.833 32.32 144.379 30.7733 145.979 29.28C147.633 27.7867 149.153 26.5867 150.539 25.68C151.979 24.72 153.206 24.24 154.219 24.24C155.499 24.24 156.139 24.9333 156.139 26.32C156.139 26.8 156.006 27.52 155.739 28.48C155.259 29.8133 154.646 31.12 153.899 32.4C153.153 33.6267 152.486 34.9333 151.899 36.32C150.886 38.8267 150.299 40.8533 150.139 42.4C150.086 42.6133 150.059 42.8267 150.059 43.04C150.059 43.2 150.059 43.3867 150.059 43.6C150.059 45.7333 150.779 46.8 152.219 46.8C153.019 46.8 154.086 46.32 155.419 45.36C156.753 44.4 158.113 43.2533 159.499 41.92C160.939 40.5867 162.219 39.3067 163.339 38.08C164.459 36.8 165.233 35.84 165.659 35.2C165.819 35.04 165.979 34.96 166.139 34.96C166.353 34.96 166.513 35.04 166.619 35.2C166.779 35.36 166.806 35.5733 166.699 35.84C166.219 36.7467 165.393 37.8933 164.219 39.28C163.099 40.6133 161.846 41.9733 160.459 43.36C159.073 44.6933 157.713 45.84 156.379 46.8C155.579 47.3333 154.593 47.8133 153.419 48.24C152.246 48.6667 151.073 48.8533 149.899 48.8C148.406 48.64 147.339 48.1333 146.699 47.28C146.059 46.3733 145.739 45.3067 145.739 44.08C145.739 42.64 146.006 41.12 146.539 39.52C147.126 37.8667 147.766 36.32 148.459 34.88C149.153 33.44 149.713 32.3467 150.139 31.6C150.566 30.7467 150.779 30.08 150.779 29.6C150.779 29.1733 150.593 28.96 150.219 28.96C149.846 28.96 149.286 29.2 148.539 29.68C147.793 30.16 146.779 30.9867 145.499 32.16C144.326 33.1733 143.073 34.5067 141.739 36.16C140.406 37.76 139.099 39.4133 137.819 41.12C136.593 42.8267 135.499 44.2933 134.539 45.52C133.633 46.7467 132.993 47.4667 132.619 47.68C132.353 47.84 131.739 48.1067 130.779 48.48C129.873 48.8533 129.179 49.04 128.699 49.04ZM161.043 77.36C160.403 77.2 159.843 77.04 159.363 76.88C158.35 76.3467 157.63 75.7333 157.203 75.04C156.776 74.4 156.563 73.7067 156.563 72.96C156.563 71.7333 156.99 70.4 157.843 68.96C158.643 67.5733 159.71 66.1333 161.043 64.64C162.376 63.04 164.056 61.4133 166.083 59.76C168.163 58.1067 170.323 56.5067 172.563 54.96C174.803 53.4667 176.776 52.16 178.483 51.04C180.35 47.2533 182.003 43.68 183.443 40.32C184.883 36.9067 185.896 34.2933 186.483 32.48C185.363 33.7067 184.163 35.0933 182.883 36.64C181.603 38.1333 180.67 39.2267 180.083 39.92C179.07 40.9867 177.923 42.16 176.643 43.44C175.363 44.6667 174.003 45.7333 172.563 46.64C171.176 47.4933 169.816 47.92 168.483 47.92C167.63 47.92 166.723 47.68 165.763 47.2C164.803 46.6667 164.03 46 163.443 45.2C162.643 44.1333 162.243 43.04 162.243 41.92C162.243 40.48 162.723 38.9867 163.683 37.44C164.696 35.8933 165.976 34.4 167.523 32.96C169.123 31.4667 170.803 30.1333 172.563 28.96C174.376 27.7333 176.083 26.72 177.683 25.92C179.336 25.0667 180.67 24.5067 181.683 24.24C182.643 23.92 183.816 23.76 185.203 23.76C185.843 23.76 186.616 23.8667 187.523 24.08C188.43 24.2933 189.23 24.64 189.923 25.12C190.67 25.5467 191.043 26.1867 191.043 27.04C191.043 27.4667 190.83 27.6 190.403 27.44C190.03 26.8 189.47 26.4 188.723 26.24C188.03 26.0267 187.31 25.92 186.563 25.92C184.483 25.92 182.136 26.6133 179.523 28C176.963 29.3867 174.67 31.0133 172.643 32.88C172.003 33.4133 171.123 34.3467 170.003 35.68C168.883 36.96 167.87 38.3733 166.963 39.92C166.11 41.4667 165.683 42.88 165.683 44.16C165.683 44.8533 165.87 45.4667 166.243 46C166.403 46.2667 166.723 46.4 167.203 46.4C168.216 46.4 169.443 45.9467 170.883 45.04C172.376 44.1333 173.95 42.9867 175.603 41.6C177.256 40.2133 178.856 38.7467 180.403 37.2C182.003 35.6 183.416 34.1333 184.643 32.8C185.87 31.4667 186.776 30.4533 187.363 29.76C187.47 29.4933 187.656 29.3067 187.923 29.2C188.19 29.0933 188.483 29.04 188.803 29.04C189.656 29.04 190.536 29.28 191.443 29.76C192.403 30.1867 192.803 30.56 192.643 30.88C191.63 33.0667 190.43 35.6 189.043 38.48C187.71 41.36 186.296 44.3733 184.803 47.52C185.496 47.1467 186.643 46.32 188.243 45.04C189.843 43.76 191.603 42.24 193.523 40.48C195.443 38.6667 197.23 36.8 198.883 34.88C199.523 34.1867 200.003 33.84 200.323 33.84C200.643 33.84 200.723 34.1333 200.563 34.72C200.403 35.2533 199.976 35.9467 199.283 36.8C198.43 37.8133 197.256 39.04 195.763 40.48C194.27 41.8667 192.696 43.3067 191.043 44.8C189.39 46.24 187.843 47.52 186.403 48.64C185.016 49.8133 183.923 50.6133 183.123 51.04C181.47 54.56 179.87 57.8667 178.323 60.96C176.776 64.1067 175.363 66.64 174.083 68.56C173.23 69.8933 172.19 71.2533 170.963 72.64C169.736 74.0267 168.403 75.1733 166.963 76.08C165.523 77.04 164.003 77.52 162.403 77.52C162.19 77.52 161.976 77.4933 161.763 77.44C161.55 77.44 161.31 77.4133 161.043 77.36ZM160.243 75.28C160.563 75.4933 161.016 75.4933 161.603 75.28C162.243 75.0667 163.043 74.5867 164.003 73.84C166.083 72.1867 167.87 70.24 169.363 68C170.856 65.8133 172.216 63.4933 173.443 61.04C174.67 58.64 175.843 56.32 176.963 54.08C174.883 55.6267 172.536 57.44 169.923 59.52C167.31 61.6533 164.936 63.76 162.803 65.84C161.736 66.9067 160.856 68.08 160.163 69.36C159.416 70.6933 159.043 71.8933 159.043 72.96C159.043 74.08 159.443 74.8533 160.243 75.28Z" fill="#FAFAF9"/>
</svg>
